<?xml version="1.0" encoding="utf-8"?>
<!-- Generator: Adobe Illustrator 27.2.0, SVG Export Plug-In . SVG Version: 6.00 Build 0)  -->
<svg version="1.1" id="Layer_1" xmlns="http://www.w3.org/2000/svg" xmlns:xlink="http://www.w3.org/1999/xlink" x="0px" y="0px"
	 viewBox="0 0 1024 1024" style="enable-background:new 0 0 1024 1024;" xml:space="preserve">
<style type="text/css">
	.st0{fill:#FFFFFF;}
</style>
<g>
	<g>
		<path class="st0" d="M305,825c-35.33,0-70.67,0-106,0c0-208.67,0-417.33,0-626c63.67,0,127.33,0,191,0
			c-3.91,0.68-7.79,1.57-11.73,2.01c-22.79,2.54-40.26,12-45.76,36.11c-2.04,8.94-2.69,18.2-4.05,27.83
			c6.92,0,12.56-0.15,18.19,0.06c3.08,0.11,3.95-1.12,4.2-4.01c0.52-5.96,1.18-11.93,2.28-17.8c1.57-8.39,5.9-15.47,14.4-17.55
			c9.77-2.39,19.94-4.35,29.95-4.38c106.14-0.3,212.27-0.2,318.41-0.09c6.64,0.01,13.34,0.64,19.89,1.69
			c14.15,2.25,21.36,8.75,23.35,22.72c1.75,12.31,2.58,24.86,2.6,37.3c0.19,117.8,0.11,235.6,0.11,353.4c0,2.43,0,4.86,0,7.49
			c7.48,0,14.26,0,21.67,0c0-2.24,0-4.37,0-6.5c0-117.97,0.08-235.94-0.11-353.9c-0.02-13.28-0.6-26.73-2.7-39.81
			c-3.4-21.19-12.27-34.78-35.16-40.23c-8.71-2.07-17.7-2.93-26.57-4.34c35.33,0,70.67,0,106,0c0,208.67,0,417.33,0,626
			c-74,0-148,0-222,0c0-7.24,0-14.49,0-22c-3.19,0-5.18,0-7.17,0c-94.66-0.02-189.33,0-283.99-0.15
			c-8.13-0.01-16.35-0.58-24.38-1.86c-13.52-2.16-20.55-8.98-22.57-22.34c-1.57-10.34-2.59-20.86-2.6-31.31
			c-0.18-126.16-0.21-252.33-0.02-378.49c0.02-12.27,1.34-24.59,2.77-36.81c1.09-9.25,6.15-16.65,15.42-19
			c8.78-2.23,18-3.83,27.03-3.85c107.33-0.26,214.66-0.21,321.99-0.08c6.96,0.01,14.01,0.79,20.85,2.09
			c11.59,2.21,19.24,9.09,20.89,21.15c1.24,9.05,2.49,18.21,2.51,27.32c0.2,121.66,0.18,243.33,0.21,364.99c0,2.26,0,4.52,0,6.97
			c7.56,0,14.31,0,21.72,0c0-2.37,0-4.49,0-6.61c0-117.83,0.09-235.66-0.12-353.49c-0.02-13.62-0.67-27.4-2.82-40.82
			c-3.35-20.92-12.53-34.65-35.74-39.63c-10.68-2.29-21.76-3.77-32.66-3.8c-101.66-0.32-203.33-0.31-304.99-0.21
			c-10.3,0.01-20.68,0.63-30.88,2.05c-28.84,4.03-41.47,16.39-45.53,45.08c-1.74,12.32-2.33,24.9-2.35,37.36
			c-0.17,122.33-0.18,244.66,0.01,366.99c0.02,13.96,0.52,28.08,2.7,41.82c3.44,21.67,12.57,34.88,35.16,40.26
			C287.15,822.72,296.14,823.58,305,825z M336.37,597.63c-2.13,8.32-4.22,17.04-6.63,25.67c-0.88,3.15,0.22,4.35,2.94,5.59
			c11.35,5.17,23.29,8.04,35.63,8.92c4.45,0.32,5.66,1.79,5.44,6.02c-0.33,6.26-0.09,12.56-0.09,18.96c8.78,0,16.96,0,25.46,0
			c0-6.57-0.08-12.72,0.02-18.87c0.13-7.9-1.67-6.99,7.01-9.14c10.08-2.49,18.87-7.24,26.42-14.38
			c16.05-15.15,18.19-42.85,4.5-60.21c-6.91-8.77-16.37-13.89-26.4-18.23c-10.52-4.55-21.06-9.08-31.36-14.09
			c-5.47-2.66-9.44-6.97-8.58-13.84c0.7-5.63,5.8-10.7,12.66-11.8c4.88-0.78,10.06-1.45,14.87-0.68c10.92,1.75,21.69,4.41,33.3,6.87
			c2.16-8.48,4.63-18.21,7.13-28c-11.17-5.07-22.26-7.75-33.84-8.19c-3.55-0.14-4.5-1.51-4.38-4.83c0.21-6.08,0.06-12.18,0.06-18.37
			c-8.9,0-16.99,0-25.62,0c0,7.05-0.1,13.84,0.05,20.62c0.06,2.76-0.86,3.8-3.6,4.83c-7.42,2.79-14.95,5.67-21.76,9.65
			c-15.51,9.08-23.06,32.14-17.19,49.14c4.9,14.21,15.66,22.35,28.43,28.38c12,5.67,24.38,10.53,36.37,16.22
			c6.08,2.88,9.02,8.38,8.26,15.19c-0.75,6.71-5.18,10.56-11.33,12.58c-9.29,3.04-18.79,2.93-28.1,0.65
			C356.24,603.91,346.66,600.68,336.37,597.63z M631.87,489.5c-50.76,0-100.96,0-151.46,0c0,7.18,0,14.07,0,21.2
			c50.59,0,100.9,0,151.46,0C631.87,503.52,631.87,496.75,631.87,489.5z M480.29,566.62c50.74,0,101.09,0,151.51,0
			c0-7.27,0-14.19,0-21.27c-50.64,0-100.98,0-151.51,0C480.29,552.5,480.29,559.29,480.29,566.62z M480.31,622.23
			c50.7,0,101.06,0,151.77,0c0-5.57-0.29-10.74,0.09-15.86c0.33-4.38-1.03-5.67-5.51-5.66c-47.15,0.16-94.3,0.1-141.45,0.11
			c-1.58,0-3.17,0.23-4.9,0.37C480.31,608.37,480.31,615,480.31,622.23z M616.3,809.49c21.38-21.33,42.62-42.51,63.74-63.58
			c-20.98,0-42.29,0-63.74,0C616.3,767.46,616.3,788.54,616.3,809.49z M718.19,707.98c16.8-16.69,33.33-33.11,49.99-49.67
			c-16.69,0-33.31,0-49.99,0C718.19,675.15,718.19,691.55,718.19,707.98z"/>
		<path d="M305,825c-8.86-1.42-17.85-2.28-26.56-4.35c-22.58-5.38-31.72-18.59-35.16-40.26c-2.18-13.74-2.68-27.87-2.7-41.82
			c-0.2-122.33-0.18-244.66-0.01-366.99c0.02-12.46,0.61-25.03,2.35-37.36c4.05-28.7,16.69-41.05,45.53-45.08
			c10.19-1.42,20.58-2.04,30.88-2.05c101.66-0.1,203.33-0.12,304.99,0.21c10.9,0.03,21.98,1.51,32.66,3.8
			c23.21,4.98,32.38,18.71,35.74,39.63c2.15,13.42,2.8,27.2,2.82,40.82c0.21,117.83,0.12,235.66,0.12,353.49c0,2.12,0,4.24,0,6.61
			c-7.41,0-14.16,0-21.72,0c0-2.45,0-4.71,0-6.97c-0.03-121.66-0.01-243.33-0.21-364.99c-0.01-9.11-1.27-18.26-2.51-27.32
			c-1.65-12.07-9.3-18.94-20.89-21.15c-6.84-1.31-13.89-2.09-20.85-2.09c-107.33-0.12-214.66-0.18-321.99,0.08
			c-9.03,0.02-18.24,1.63-27.03,3.85c-9.28,2.35-14.34,9.74-15.42,19c-1.43,12.21-2.76,24.53-2.77,36.81
			c-0.19,126.16-0.16,252.33,0.02,378.49c0.01,10.44,1.03,20.97,2.6,31.31c2.03,13.35,9.06,20.18,22.57,22.34
			c8.03,1.28,16.25,1.85,24.38,1.86c94.66,0.15,189.33,0.13,283.99,0.15c1.99,0,3.98,0,7.17,0c0,7.51,0,14.75,0,22
			C503.67,825,404.33,825,305,825z"/>
		<path d="M719,199c8.86,1.41,17.86,2.27,26.57,4.34c22.88,5.45,31.75,19.05,35.16,40.23c2.1,13.08,2.68,26.53,2.7,39.81
			c0.2,117.97,0.11,235.94,0.11,353.9c0,2.13,0,4.25,0,6.5c-7.41,0-14.19,0-21.67,0c0-2.63,0-5.06,0-7.49
			c0-117.8,0.07-235.6-0.11-353.4c-0.02-12.44-0.85-24.99-2.6-37.3c-1.99-13.98-9.2-20.47-23.35-22.72
			c-6.56-1.04-13.26-1.68-19.89-1.69c-106.14-0.11-212.27-0.21-318.41,0.09c-10,0.03-20.18,1.99-29.95,4.38
			c-8.5,2.08-12.83,9.17-14.4,17.55c-1.1,5.87-1.76,11.85-2.28,17.8c-0.25,2.89-1.12,4.12-4.2,4.01
			c-5.63-0.21-11.28-0.06-18.19-0.06c1.36-9.63,2.01-18.89,4.05-27.83c5.5-24.11,22.97-33.58,45.76-36.11
			c3.93-0.44,7.82-1.33,11.73-2.01C499.67,199,609.33,199,719,199z"/>
		<path d="M336.37,597.63c10.3,3.05,19.88,6.29,29.67,8.68c9.31,2.27,18.81,2.39,28.1-0.65c6.15-2.02,10.58-5.87,11.33-12.58
			c0.76-6.81-2.19-12.31-8.26-15.19c-11.99-5.69-24.37-10.55-36.37-16.22c-12.76-6.03-23.52-14.17-28.43-28.38
			c-5.87-17.01,1.68-40.07,17.19-49.14c6.81-3.99,14.34-6.86,21.76-9.65c2.74-1.03,3.66-2.08,3.6-4.83
			c-0.14-6.78-0.05-13.57-0.05-20.62c8.63,0,16.73,0,25.62,0c0,6.19,0.15,12.28-0.06,18.37c-0.12,3.32,0.83,4.69,4.38,4.83
			c11.58,0.44,22.67,3.12,33.84,8.19c-2.49,9.8-4.97,19.53-7.13,28c-11.61-2.46-22.38-5.12-33.3-6.87
			c-4.81-0.77-9.98-0.1-14.87,0.68c-6.86,1.1-11.96,6.18-12.66,11.8c-0.86,6.87,3.11,11.18,8.58,13.84
			c10.3,5.01,20.84,9.53,31.36,14.09c10.03,4.34,19.49,9.46,26.4,18.23c13.69,17.36,11.55,45.06-4.5,60.21
			c-7.56,7.14-16.34,11.89-26.42,14.38c-8.68,2.15-6.88,1.24-7.01,9.14c-0.1,6.15-0.02,12.3-0.02,18.87c-8.5,0-16.68,0-25.46,0
			c0-6.4-0.25-12.7,0.09-18.96c0.23-4.23-0.99-5.7-5.44-6.02c-12.35-0.88-24.29-3.75-35.63-8.92c-2.72-1.24-3.82-2.44-2.94-5.59
			C332.15,614.67,334.24,605.95,336.37,597.63z"/>
		<path d="M631.87,489.5c0,7.25,0,14.03,0,21.2c-50.55,0-100.87,0-151.46,0c0-7.13,0-14.02,0-21.2
			C530.9,489.5,581.1,489.5,631.87,489.5z"/>
		<path d="M480.29,566.62c0-7.32,0-14.12,0-21.27c50.53,0,100.87,0,151.51,0c0,7.08,0,14,0,21.27
			C581.38,566.62,531.03,566.62,480.29,566.62z"/>
		<path d="M480.31,622.23c0-7.23,0-13.86,0-21.04c1.73-0.14,3.32-0.37,4.9-0.37c47.15-0.02,94.3,0.05,141.45-0.11
			c4.48-0.02,5.83,1.27,5.51,5.66c-0.38,5.12-0.09,10.29-0.09,15.86C581.37,622.23,531.01,622.23,480.31,622.23z"/>
		<path d="M616.3,809.49c0-20.95,0-42.04,0-63.58c21.45,0,42.76,0,63.74,0C658.92,766.98,637.68,788.17,616.3,809.49z"/>
		<path d="M718.19,707.98c0-16.43,0-32.83,0-49.67c16.68,0,33.3,0,49.99,0C751.52,674.87,734.99,691.29,718.19,707.98z"/>
	</g>
</g>
</svg>
