<?xml version="1.0" encoding="UTF-8"?>
<svg id="Layer_2" data-name="Layer 2" xmlns="http://www.w3.org/2000/svg" viewBox="0 0 764.68 708.65">
  <defs>
    <style>
      .cls-1 {
        fill: #fff;
      }
    </style>
  </defs>
  <path class="cls-1" d="m757.52,708.65H43.87V0h713.65v708.65Zm-490-417.72c-8.73-4.93-17.76-4.8-26.82-4.7-15.93.18-29.09,9.76-33.22,25.16-1.39,5.17-1.59,10.81-1.48,16.21.55,26.62.61,53.28,2.36,79.83,1.46,22.17,8.48,43.05,20.23,62.13,19.9,32.29,39.74,64.6,59.72,96.83,3.64,5.87,5.27,12.09,5.33,18.92.19,23.66.46,47.33.74,70.99.02,1.65.09,3.37.56,4.92,1.61,5.3,6.59,8.19,12.3,7.33,5.29-.8,8.97-5.22,8.93-11.2-.19-24.97-.39-49.95-.79-74.92-.14-9.18-2.54-17.88-7.39-25.75-19-30.88-37.86-61.84-57.15-92.53-9.89-15.73-17.21-32.39-19.65-50.79-1.67-12.57-2.48-25.31-2.89-37.99-.58-17.58-.47-35.2-.58-52.8-.04-6.94,3.35-13.08,8.96-13.77,6.23-.76,12.93-.79,18.95.73,7.22,1.82,10.62,8.46,11.57,15.4,1.06,7.73,1.05,15.63,1.22,23.46.26,12.25.24,24.5.44,36.75.09,5.24,3.02,9.21,7.51,10.58,4.5,1.38,9.91-.18,12.23-4.27,1.32-2.33,2.02-5.36,2-8.07-.24-33.53-.67-67.07-1.03-100.6-.59-54.11-1.22-108.22-1.66-162.33-.04-4.06.81-8.34,2.19-12.17,3.43-9.51,12-15,20.62-13.45,8.14,1.47,13.57,6.84,15.79,14.38,1.81,6.14,2.4,12.81,2.5,19.26.66,44.47,1.05,88.95,1.53,133.42.26,24.5.53,48.99.82,73.49.09,7.19,4.82,12.14,11.29,11.97,6.36-.16,10.63-5.13,10.55-12.31-.02-2.02-.14-4.04-.16-6.07-.55-48.76-1.11-97.51-1.63-146.27-.32-29.97-.58-59.94-.9-89.91-.08-7.55,1.86-14.37,7.07-19.97,7.69-8.27,19-8.21,26.64.15,5.05,5.51,7.29,12.12,7.38,19.55.33,28.18.71,56.36,1.02,84.55.59,52.56,1.15,105.12,1.71,157.68.08,7.48,4.34,12.3,10.9,12.26,6.62-.04,11.02-4.94,10.95-12.29-.26-27.59-.55-55.18-.86-82.77-.39-35.32-.8-70.64-1.19-105.95-.07-6.74,1.65-12.96,5.85-18.32,7.54-9.61,19.93-10.04,28.07-.95,4.99,5.57,7.11,12.22,7.19,19.63.33,29.61.73,59.22,1.05,88.83.36,33.18.64,66.35.97,99.54.07,7.09,4.63,12.05,10.93,11.95,6.59-.11,10.9-4.81,10.89-11.9-.01-6.66-.06-13.32-.12-19.98-.24-24.86-.5-49.71-.74-74.56-.08-7.71,2.2-14.53,7.74-20.04,7.24-7.19,17.12-7.39,24.61-.44,5.81,5.39,8.47,12.25,8.69,20.05.24,8.68.29,17.36.39,26.04.61,55.89,1.1,111.79,1.88,167.67.39,27.58-4.66,53.89-16.68,78.77-5.99,12.41-12.17,24.73-18.13,37.16-5.4,11.25-8.93,23.12-9.54,35.59-.55,11.15-.26,22.34-.24,33.51.04,13.08.11,26.16.34,39.24.11,6.57,4.82,10.98,11.16,10.87,6.22-.11,10.48-4.52,10.6-11,.03-1.66,0-3.33-.01-5-.21-19.5-.53-39-.6-58.5-.04-12.17,2.55-23.84,7.86-34.83,5.01-10.38,9.94-20.8,15.21-31.05,14.86-28.89,22.29-59.5,21.85-92.01-.19-13.92-.31-27.83-.47-41.74-.59-51.49-1.17-102.98-1.76-154.47-.09-8.23-2.01-16.01-5.78-23.31-10.65-20.6-34.45-30.53-55.46-18.98-.56.31-1.27.36-2.26.61,0-1.61.01-2.9,0-4.2-.19-16.53-.36-33.06-.61-49.58-.14-9.51-2.93-18.25-8-26.26-9.66-15.26-26.58-22.79-43.12-18.93-4.07.95-7.94,2.8-12.44,4.42,0-2.98-.06-5.67,0-8.36.24-9.82-1.61-19.13-6.37-27.81-9.38-17.1-27.42-26.04-45.08-21.77-15.7,3.8-25.28,14.33-30.47,29.25-.49,1.4-.92,2.81-1.43,4.37-1.08-.56-1.71-.88-2.33-1.21-.74-.39-1.44-.83-2.19-1.2-14.22-6.87-28-5.99-40.73,3.3-12.8,9.35-18.49,22.66-18.85,38.23-.24,10.1.18,20.21.29,30.32.4,40.08.8,80.15,1.18,120.23.06,7.01,0,13.99,0,21.76Zm361.12,107.28c5.93-.05,10.31-4.32,10.81-10.59.21-2.6.11-5.25.54-7.81,4.27-25.44,23.66-42.7,49.41-44.25,2.52-.15,5.26-.73,7.41-1.96,3.94-2.25,5.5-7.12,4.37-11.5-1.26-4.86-4.77-7.97-9.96-8.19-7.81-.32-15.42-1.48-22.39-5.11-18.54-9.63-28.47-24.88-29.33-45.87-.3-7.23-4.65-11.72-11.21-11.63-6.37.08-10.43,4.55-10.65,11.74-.85,27.73-21.59,49-49.43,50.75-1.88.12-3.85.2-5.6.8-4.91,1.67-7.63,6.61-6.87,11.95.71,4.97,4.63,8.71,10.03,8.96,7.31.34,14.47,1.28,21.1,4.5,19.55,9.48,29.67,25.22,30.76,46.84.36,6.99,4.55,11.42,11.03,11.37Zm-456.08-125.09c5.88.09,10.55-4.65,11.06-10.82.39-4.71.71-9.53,1.96-14.06,6.09-22.22,25.27-37,48.47-37.76,5.52-.18,9.46-2.91,10.89-7.56,2.26-7.31-2.82-14.12-10.88-14.27-9.39-.16-18.13-2.51-25.99-7.6-15.58-10.08-23.76-24.5-24.46-43.08-.28-7.41-4.62-11.95-11.4-11.74-6.32.2-10.3,4.74-10.48,11.94-.66,27.63-22.54,49.71-49.98,50.44-7.15.19-11.94,4.6-11.95,10.99,0,6.4,4.7,10.66,11.97,10.89,9.09.29,17.63,2.6,25.31,7.54,15.75,10.13,23.93,24.66,24.64,43.35.26,6.89,4.54,11.62,10.83,11.73Zm68.94,260.39c0-5.91-4.42-10.49-10.5-10.89-2.25-.15-4.53-.1-6.74-.46-22.79-3.73-38.54-21.99-39.31-45.26-.07-2.26-.79-4.74-1.94-6.67-2.43-4.05-7.35-5.64-11.83-4.37-4.95,1.4-7.83,5.35-7.99,10.91-.76,25.74-19.75,45.03-45.16,45.85-6.89.22-11.42,4.62-11.37,11.06.04,6.42,4.52,10.56,11.6,10.78,9.01.27,17.36,2.78,24.73,7.99,12.87,9.11,19.63,21.62,20.18,37.42.24,6.97,4.47,11.6,10.8,11.65,6.54.06,10.88-4.56,11.08-11.73.04-1.54.09-3.1.31-4.62,3.49-23.89,21.1-39.69,45.37-40.75,6.36-.27,10.78-4.75,10.78-10.9Z"/>
  <path d="m267.52,290.93c0-7.76.06-14.75,0-21.74-.38-40.08-.78-80.15-1.18-120.23-.1-10.11-.52-20.22-.29-30.32.36-15.56,6.06-28.88,18.85-38.23,12.72-9.29,26.51-10.18,40.73-3.3.75.36,1.46.81,2.19,1.2.62.34,1.26.66,2.33,1.21.51-1.56.95-2.98,1.43-4.37,5.19-14.92,14.77-25.46,30.47-29.25,17.66-4.27,35.7,4.67,45.08,21.77,4.76,8.68,6.62,17.99,6.37,27.81-.06,2.69,0,5.39,0,8.36,4.5-1.63,8.36-3.47,12.44-4.42,16.54-3.85,33.46,3.68,43.12,18.93,5.07,8.01,7.86,16.76,8,26.26.24,16.53.41,33.06.61,49.58.01,1.3,0,2.59,0,4.2.98-.26,1.69-.31,2.26-.61,21-11.55,44.82-1.62,55.46,18.98,3.78,7.3,5.69,15.09,5.78,23.31.58,51.49,1.17,102.98,1.76,154.47.16,13.92.28,27.83.47,41.74.44,32.51-6.99,63.11-21.85,92.01-5.27,10.25-10.2,20.67-15.21,31.05-5.31,10.99-7.9,22.67-7.86,34.83.07,19.5.39,39,.6,58.5.02,1.66.05,3.33.01,5-.12,6.49-4.37,10.9-10.6,11-6.34.11-11.05-4.3-11.16-10.87-.23-13.08-.31-26.16-.34-39.24-.03-11.17-.31-22.36.24-33.51.61-12.47,4.15-24.34,9.54-35.59,5.96-12.42,12.14-24.75,18.13-37.16,12.02-24.88,17.07-51.19,16.68-78.77-.79-55.89-1.27-111.79-1.88-167.67-.09-8.68-.14-17.36-.39-26.04-.21-7.8-2.88-14.67-8.69-20.05-7.48-6.94-17.37-6.74-24.61.44-5.55,5.52-7.82,12.34-7.74,20.04.24,24.86.5,49.71.74,74.56.06,6.66.11,13.32.12,19.98.01,7.09-4.3,11.79-10.89,11.9-6.29.11-10.85-4.85-10.93-11.95-.33-33.18-.61-66.35-.97-99.54-.31-29.61-.72-59.22-1.05-88.83-.09-7.41-2.21-14.07-7.19-19.63-8.14-9.09-20.54-8.66-28.07.95-4.2,5.36-5.93,11.58-5.85,18.32.39,35.32.81,70.64,1.19,105.95.3,27.59.59,55.18.86,82.77.07,7.35-4.33,12.25-10.95,12.29-6.57.04-10.83-4.77-10.9-12.26-.56-52.56-1.12-105.12-1.71-157.68-.31-28.18-.69-56.36-1.02-84.55-.09-7.43-2.33-14.04-7.38-19.55-7.64-8.36-18.95-8.43-26.64-.15-5.22,5.62-7.15,12.43-7.07,19.97.32,29.97.58,59.94.9,89.91.53,48.76,1.08,97.51,1.63,146.27.02,2.02.14,4.04.16,6.07.07,7.18-4.2,12.15-10.55,12.31-6.47.16-11.2-4.79-11.29-11.97-.29-24.5-.56-48.99-.82-73.49-.49-44.47-.87-88.95-1.53-133.42-.09-6.45-.69-13.12-2.5-19.26-2.22-7.54-7.64-12.92-15.79-14.38-8.63-1.56-17.2,3.94-20.62,13.45-1.38,3.83-2.23,8.1-2.19,12.17.44,54.11,1.06,108.22,1.66,162.33.36,33.53.79,67.07,1.03,100.6.02,2.71-.68,5.74-2,8.07-2.32,4.1-7.73,5.65-12.23,4.27-4.48-1.38-7.42-5.35-7.51-10.58-.2-12.25-.18-24.5-.44-36.75-.17-7.83-.16-15.73-1.22-23.46-.95-6.94-4.34-13.58-11.57-15.4-6.02-1.51-12.72-1.48-18.95-.73-5.61.69-9,6.82-8.96,13.77.1,17.6,0,35.21.58,52.8.41,12.69,1.22,25.41,2.89,37.99,2.44,18.4,9.76,35.05,19.65,50.79,19.29,30.69,38.16,61.65,57.15,92.53,4.85,7.87,7.24,16.57,7.39,25.75.39,24.97.59,49.95.79,74.92.05,5.98-3.63,10.4-8.93,11.2-5.7.86-10.69-2.03-12.3-7.33-.47-1.56-.54-3.28-.56-4.92-.28-23.66-.55-47.33-.74-70.99-.06-6.83-1.69-13.05-5.33-18.92-19.98-32.23-39.84-64.54-59.72-96.83-11.76-19.08-18.77-39.97-20.23-62.13-1.76-26.55-1.81-53.21-2.36-79.83-.11-5.41.09-11.04,1.48-16.21,4.13-15.41,17.29-24.98,33.22-25.16,9.06-.12,18.09-.26,26.82,4.67Z"/>
  <path d="m628.64,398.21c-6.48.06-10.67-4.38-11.02-11.38-1.08-21.61-11.21-37.36-30.76-46.84-6.64-3.22-13.79-4.16-21.1-4.5-5.4-.26-9.33-4-10.03-8.96-.76-5.35,1.96-10.28,6.87-11.95,1.76-.6,3.72-.68,5.6-.8,27.84-1.75,48.58-23.02,49.43-50.75.22-7.18,4.28-11.66,10.65-11.74,6.56-.08,10.92,4.4,11.21,11.63.86,21,10.79,36.24,29.33,45.87,6.97,3.63,14.59,4.79,22.39,5.11,5.2.21,8.71,3.33,9.96,8.19,1.13,4.38-.42,9.25-4.37,11.5-2.16,1.23-4.89,1.8-7.41,1.96-25.74,1.56-45.12,18.81-49.41,44.25-.43,2.56-.33,5.21-.54,7.81-.51,6.29-4.88,10.55-10.82,10.6Zm-23.93-73.48c9.96,6.47,17.58,14.28,23.83,23.96,6.29-10.01,14.17-17.58,23.76-24.09-10-6.19-17.47-14.12-23.86-23.76-6.24,9.86-13.93,17.47-23.73,23.88Z"/>
  <path d="m172.57,273.12c-6.29-.1-10.57-4.82-10.83-11.73-.71-18.7-8.88-33.23-24.64-43.35-7.67-4.94-16.21-7.26-25.31-7.54-7.26-.23-11.98-4.49-11.97-10.89,0-6.39,4.8-10.8,11.95-10.99,27.43-.74,49.31-22.82,49.98-50.44.17-7.2,4.16-11.74,10.48-11.94,6.78-.21,11.12,4.32,11.4,11.74.7,18.58,8.88,32.99,24.46,43.08,7.86,5.09,16.6,7.43,25.99,7.6,8.06.14,13.13,6.95,10.88,14.27-1.43,4.65-5.37,7.38-10.89,7.56-23.2.76-42.38,15.54-48.47,37.76-1.24,4.52-1.56,9.34-1.96,14.06-.51,6.16-5.18,10.91-11.06,10.82Zm.11-49.54c6.2-10.08,14.06-17.65,23.59-24.06-9.86-6.3-17.38-14.11-23.66-23.81-6.15,9.91-13.93,17.58-23.69,23.91,9.76,6.28,17.44,13.93,23.76,23.96Z"/>
  <path d="m241.5,533.51c0,6.14-4.42,10.63-10.78,10.9-24.27,1.06-41.88,16.86-45.37,40.75-.22,1.52-.26,3.08-.31,4.62-.2,7.17-4.54,11.78-11.08,11.73-6.34-.05-10.55-4.67-10.8-11.65-.55-15.79-7.31-28.3-20.18-37.42-7.37-5.22-15.71-7.72-24.73-7.99-7.07-.21-11.55-4.36-11.6-10.78-.04-6.44,4.48-10.84,11.37-11.06,25.41-.83,44.4-20.12,45.16-45.85.16-5.57,3.05-9.51,7.99-10.91,4.47-1.27,9.41.32,11.83,4.37,1.16,1.93,1.87,4.41,1.94,6.67.76,23.28,16.51,41.53,39.31,45.26,2.21.36,4.5.31,6.74.46,6.08.4,10.5,4.97,10.5,10.88Zm-48.98.05c-6.02-6.1-12.39-12.55-18.39-18.63-6.08,6.1-12.49,12.53-18.55,18.62,6.04,6.04,12.47,12.46,18.55,18.54,5.98-6.02,12.37-12.45,18.4-18.53Z"/>
  <path class="cls-1" d="m604.71,324.74c9.8-6.41,17.49-14.02,23.73-23.88,6.39,9.63,13.87,17.58,23.86,23.76-9.6,6.5-17.48,14.07-23.76,24.09-6.25-9.68-13.88-17.49-23.83-23.96Z"/>
  <path class="cls-1" d="m172.68,223.58c-6.32-10.04-14-17.68-23.76-23.96,9.76-6.33,17.54-14,23.69-23.91,6.28,9.71,13.8,17.51,23.66,23.81-9.52,6.42-17.38,13.99-23.59,24.06Z"/>
  <path class="cls-1" d="m192.52,533.56c-6.03,6.07-12.42,12.51-18.39,18.53-6.09-6.08-12.51-12.5-18.55-18.54,6.07-6.09,12.47-12.52,18.55-18.62,5.99,6.08,12.36,12.53,18.38,18.63Z"/>
</svg>