<?xml version="1.0" standalone="no"?>
<!DOCTYPE svg PUBLIC "-//W3C//DTD SVG 20010904//EN" "http://www.w3.org/TR/2001/REC-SVG-20010904/DTD/svg10.dtd">
<svg version="1.0" xmlns="http://www.w3.org/2000/svg"
    width="150.000000pt" height="150.000000pt" viewBox="0 0 225.000000 466.000000"
    preserveAspectRatio="xMidYMid meet">

    <g transform="translate(0.000000,466.000000) scale(0.04,-0.04)"
        fill="#ffffff" stroke="none">
        <path
            d="M1137 4388 c-4 -99 -7 -228 -7 -285 l0 -103 -510 0 -510 0 0 -90 0
-90 507 -2 508 -3 3 -52 3 -53 -510 0 -511 0 0 -1104 0 -1105 195 -152 c107
-84 195 -156 195 -161 0 -4 5 -8 10 -8 10 0 605 -463 614 -478 2 -4 10 -144
17 -310 7 -166 14 -300 16 -298 2 2 57 188 121 414 l118 411 182 143 c101 79
190 148 199 153 9 6 24 17 33 25 9 9 85 70 169 135 l154 120 -74 5 c-67 5 -74
7 -71 25 11 68 124 543 133 559 6 10 13 43 16 72 l6 54 -112 0 c-95 0 -111 2
-111 16 0 19 189 625 200 639 4 6 10 29 14 52 l6 43 -199 2 -199 3 182 335
c99 184 189 346 199 360 36 51 40 50 -298 50 l-316 0 -19 43 c-11 23 -20 48
-20 55 0 9 74 12 335 12 l335 0 0 90 0 90 -378 0 -378 0 -118 285 c-66 157
-120 285 -121 285 -1 0 -5 -82 -8 -182z m126 -340 c14 -35 121 -288 237 -563
117 -275 214 -506 217 -512 4 -10 -14 -13 -72 -13 -58 0 -76 -3 -72 -12 3 -7
75 -174 161 -371 86 -197 156 -360 156 -363 0 -2 -49 -4 -109 -4 l-108 0 143
-347 c79 -192 144 -351 144 -355 0 -5 -111 -8 -248 -8 l-248 0 -108 -378 c-59
-207 -110 -385 -112 -394 -3 -10 -10 -18 -15 -18 -5 0 -9 164 -9 412 l0 413
-151 151 c-110 110 -149 155 -143 165 5 8 73 77 152 153 l142 140 0 -297 c0
-163 3 -297 8 -297 4 0 74 66 155 148 l147 147 -153 153 -153 153 156 154 155
155 -155 155 -155 155 155 155 155 155 -157 157 -158 157 0 358 c0 204 4 358
9 358 5 0 20 -28 34 -62z m-498 -818 l150 -150 -155 -155 -155 -155 155 -155
155 -155 -150 -150 c-82 -82 -154 -150 -160 -150 -12 0 -305 291 -305 303 0 4
68 75 152 158 l152 150 -155 155 -154 154 150 150 c82 82 154 150 160 150 6 0
78 -68 160 -150z m455 -157 l0 -298 -152 152 -153 153 145 145 c80 80 148 145
152 145 5 0 8 -134 8 -297z m-5 -902 c-3 -3 -72 61 -153 142 l-147 147 150
150 150 150 3 -291 c1 -161 0 -295 -3 -298z m-459 -480 l-155 -155 -153 152
-153 152 155 155 155 155 152 -152 153 -153 -154 -154z" />
    </g>
</svg>
