<?xml version="1.0" encoding="UTF-8"?>
<!DOCTYPE svg PUBLIC "-//W3C//DTD SVG 20010904//EN" "http://www.w3.org/TR/2001/REC-SVG-20010904/DTD/svg10.dtd">
<svg version="1.0" xmlns="http://www.w3.org/2000/svg"
  width="100.000000pt" height="100.000000pt" viewBox="0 0 768.67 789.98"
  preserveAspectRatio="xMidYMid meet">
  <g fill="#fff">
    <path
      d="m431.77,91.31c15.72,3.59,31.42,7.18,46.97,10.73-6.84-14.79-13.57-29.37-21.69-46.91,31.9,9,48.57,27.05,56.34,54.33,1.19,4.19,4.78,8.38,8.38,11.06,8.59,6.38,17.85,11.86,29.85,19.67-8.86-22.28-15.82-41.5-9.74-64.44,20.96,15.13,35.43,34.21,32.57,58.33-3,25.35,12.91,35.18,29.85,50.56-5.34-26.25-4.09-49.07,6.32-72.8,19.57,25.46,29.99,51.74,22.22,83.03-5.06,20.43-3.74,26.49,12.79,46.77-2.96-29.77,4.74-53.2,24.05-74.17,12.8,29.64,13.81,57.58-1.47,85.4-10.84,19.71-10.82,20.76,1.71,43.84,5.78-21.76,14.54-40.45,32.26-54.72,11.41,32.09,5.85,61.02-13.24,86.92-6.9,9.35-11.02,17.27-7.81,28.74,1.53,5.48,1.04,11.53,2.73,17.78,11.19-20.86,26.33-36.66,49.23-46.9.2,30.38-7.36,56.74-31.84,73.26-15.84,10.7-22.92,22.38-20.11,41.36,16.18-13.73,31.06-29.82,55.05-34.35-2.48,25.95-14.12,44.94-33.51,59.41-5.44,4.07-11.71,7.21-17.93,10.01-16,7.18-16.08,7.01-20.19,23.53,17.5-6.31,35.81-12.9,54.12-19.5-8.52,31.97-25.29,53.5-56.15,61.64-22.49,5.92-22.39,6.27-36.12,31.25,21.28-7.52,41.29-11.38,66.07-3.74-13.63,10.71-24.07,21-36.37,28.01-13.08,7.47-27.52,14.71-43.53,11.27-18.11-3.88-25.18,9.79-34.7,17.81,19.19,2.38,38.23,3.81,56.87,7.43,9.66,1.88,18.58,7.6,29,12.09-35,24.99-71.37,33.54-110.44,17.19-13.36-5.59-23.88-6.16-35.36,2.08-3.73,2.66-8.12,4.42-12.63,8.17,36.59,3.49,65.38,20.61,88.88,47.36-40.32,20.04-103.19,17.01-139.84-22.48-3.76-4.05-12.2-6.51-17.82-5.64-35.18,5.44-70.12,5.64-105.25-.28-4.65-.79-11.72.86-14.74,4.09-40.72,43.66-100.91,42.71-142.2,24.82,23.74-26.92,51.99-44.46,88.72-47.74-15.25-8.09-26.65-20.34-47.95-10.53-37,17.05-77.77,8.52-108.56-16.94,26.11-14.92,53.77-22.11,84.49-17.41-10.14-9.67-16.64-22.11-34.9-20.37-28.15,2.68-57.28-13.8-76.22-39.71,21.16-7.02,41.07-2.99,62.35,4.37-8.06-14.36-14.71-24.63-32.18-27.62-32.02-5.45-50.29-28.43-61.03-60.09,10.7,2.33,20.47,3.63,29.67,6.7,8.79,2.93,16.98,7.68,26.46,12.11-2.89-13.32-6.24-23.01-21.19-28.53-30.06-11.1-46.37-34.84-51.5-66.73,17.01-.27,29.07,6.94,53.71,31.41,3.32-19.97,1.32-25.24-13.8-36.08-25.14-18.04-37.02-42.76-36.2-77.13,21.89,9.3,36.96,24.33,46.66,45.4,7.68-16.12,6.1-31.88-3.08-45.12-18.38-26.49-24.27-55.06-13.05-87.63,17.19,14.78,26.77,32.64,32.04,55.69,6.58-15.79,14.96-26.92,3.24-43.72-18.37-26.33-15.58-55.96-2.94-86.24,18.61,19.97,26.91,42.67,26.35,69.59,6.51-11.22,18.2-18.61,12.49-35.25-11.23-32.78-1.36-62.03,20.33-89.97,10.11,23.48,12.17,45.85,5.97,72.38,11.19-9.98,20.41-17.72,28.87-26.2,1.71-1.71.84-6.35.59-9.59-2.34-29.6,7.23-53.73,32.78-72.14,7.52,22.18-.63,41.49-8.51,62.67,13.05-8.01,24.17-14.58,34.97-21.66,1.68-1.09,2.17-4.36,2.75-6.73,6.79-27.82,23.81-45.88,55.73-55.44-7.74,17.4-14.23,32.01-20.82,46.82,13.64-3.11,28.35-6.45,43.04-9.8.18.7.36,1.39.55,2.09-15.77,4.47-31.55,8.95-49.59,14.05,18.49,4.87,34.56,9.1,51.61,13.59-17.18,22.27-48.02,29.63-77.35,20.2-7.52-2.41-16.73-8.57-22.28-6.21-12.62,5.36-23.44,14.92-33.64,25.28,9.07-1.36,18.14-3.76,27.23-3.8,9.24-.04,18.51,2.23,30.09,3.81-22.1,25.21-46.94,37.95-77.83,32.47-12.16-2.16-18.65,1.39-24.66,10.11-5.15,7.46-10.26,14.93-14.18,23.53,18.54-14.47,39.03-18.24,62.29-16.6-12.79,29.37-33.8,46.9-64.75,48.34-14.71.69-21.84,5.93-25.41,19-1.65,6.06-3.94,11.93-6.01,18.11,16.39-10.32,31.94-20.09,47.47-29.88l2.87,3.34c-4.81,28.36-17.19,53.34-44.39,65.48-15.54,6.94-19.81,16.29-20.26,30.62-.18,5.8-.03,11.61-.03,17.05,12.21-14.09,24.27-28.01,36.34-41.94,1.43.74,2.86,1.49,4.29,2.23,4.78,15.35,2.29,31.06-4.85,44.75-6.95,13.38-18.06,24.55-26.67,37.14-2.94,4.3-5.9,10.19-5.38,14.97,1.21,11.19,4.51,22.17,7.61,36.08,7.21-17.22,13.1-31.28,19.81-47.32,19.83,30.87,18.68,60.08,4.53,89.14-3.84,7.89-3.15,13.28,1.21,19.81,5.61,8.43,10.77,17.13,16.59,26.44,1.61-19.95,3.07-38.12,4.54-56.31,20.6,19.94,36.96,42.4,30.27,70.15-6,24.94,6.6,36.06,25.62,49.75-9.35-23.7-13.24-45.27-5.03-68.91,20.36,13.64,34.37,30.23,37.6,54.43.39,2.97,1.22,6.3.35,8.97-8.9,27.73,10.45,35.23,30.19,42.47,6.69,2.44,13.47,4.6,21.79,5.57-36.85-28.57-45.51-66.68-41.08-109.77,38.12,11.03,78.53,41.35,77.41,121.41,30.03,5.94,60.29,4.89,90.8,3.01,15.09-.94,17.79-6.73,18.38-21.03,2.17-51.99,25.01-86.34,75.89-103.95,4.96,43.3-3.9,81.03-41.28,108.65,1.04,1.33,2.08,2.68,3.13,4.01,16.47-7.8,33.03-15.41,49.24-23.74,1.37-.72.73-6.18.35-9.37-4.01-33.79,7.02-60.68,36.02-79.53,9.48,12.63,7.82,39.1-1.19,62.46,16.6-4.68,26.88-19.73,24.27-35.5-5.08-30.66,3.31-55.9,28.93-81.73,1.88,20.22,3.55,38,5.36,57.42,6.13-10.08,12.76-20.09,18.2-30.71,1.18-2.29-1.61-6.94-3.17-10.22-13.89-29.44-15.2-58.44,4.4-90.36,6.97,17.19,12.98,32.04,20.58,50.76,3.77-18.54,9.69-34.72,9.18-50.7-.24-7.68-12.82-14.81-19.4-22.52-16.35-19.1-21.02-41.26-18.4-65.22,1.51-1,3.03-2,4.54-3,11.99,13.32,23.98,26.64,35.42,39.36,6.09-15.52-.94-35.6-16.22-42.88-24.92-11.88-45.5-42.67-45.46-71.73,16.97,10.57,32.26,20.11,49.2,30.66-4.71-11.36-8.76-22.43-14.06-32.88-1.12-2.2-6.74-2.85-10.33-2.97-33.75-1.22-57.33-17.18-71.72-48.96,21.41-3.03,40.14,2.17,57.7,13.46.91-1.05,1.81-2.1,2.72-3.15-7.36-9.32-14.34-18.98-22.36-27.71-1.75-1.91-7.3-1.08-10.89-.39-32.47,6.24-57.7-6.37-80.59-30.43,18.94-8.01,36.69-6.23,54.6-1.37.56-.95,1.11-1.91,1.67-2.86-7.74-5.65-16.03-10.7-23.08-17.11-9.35-8.51-17.82-5.78-27.94-1.46-20.25,8.65-41.12,8.44-61.23-.88-7.36-3.41-13.77-8.88-20.6-13.4.21-1.3.42-2.62.63-3.93,15.09-4.21,30.19-8.43,48.93-13.66-18.94-5.41-35.18-10.07-51.43-14.71l.56-2.2-.04.04Z" />
    <path
      d="m397.75,302.83v184.32h-23.21v-160.7c-11.02,5.79-20.64,10.86-31.38,16.5-1.35-4.67-3.26-8.86-3.52-13.16-.15-2.55,1.59-6.46,3.7-7.7,10.01-5.93,20.07-12.09,30.85-16.29,6.8-2.65,14.89-2,23.56-2.96h0Z" />
  </g>
</svg>
