<?xml version="1.0" encoding="UTF-8"?>
<svg id="Layer_3" data-name="Layer 3" xmlns="http://www.w3.org/2000/svg" viewBox="0 0 764.68 708.65">
  <defs>
    <style>
      .cls-1, .cls-2 {
        stroke: #000;
        stroke-miterlimit: 10;
        stroke-width: 14px;
      }

      .cls-2 {
        fill: #fff;
      }
    </style>
  </defs>
  <path class="cls-2" d="m687.8,452.57H76.88c-38.59,0-69.88-31.29-69.88-69.88v-16.61c0-38.59,31.29-69.88,69.88-69.88h610.92c38.59,0,69.88,31.29,69.88,69.88v16.61c0,38.59-31.29,69.88-69.88,69.88Z"/>
  <path class="cls-1" d="m148.3,382.38h0c-4.42,0-8-3.58-8-8h0c0-4.42,3.58-8,8-8h0c4.42,0,8,3.58,8,8h0c0,4.42-3.58,8-8,8Z"/>
  <path class="cls-1" d="m308.71,382.38h0c-4.42,0-8-3.58-8-8h0c0-4.42,3.58-8,8-8h0c4.42,0,8,3.58,8,8h0c0,4.42-3.58,8-8,8Z"/>
  <path class="cls-1" d="m468.27,382.38h0c-4.42,0-8-3.58-8-8h0c0-4.42,3.58-8,8-8h0c4.42,0,8,3.58,8,8h0c0,4.42-3.58,8-8,8Z"/>
  <path class="cls-1" d="m627.82,382.38h0c-4.42,0-8-3.58-8-8h0c0-4.42,3.58-8,8-8h0c4.42,0,8,3.58,8,8h0c0,4.42-3.58,8-8,8Z"/>
</svg>